<svg width="32" height="33" viewBox="0 0 32 33" fill="none" xmlns="http://www.w3.org/2000/svg">
<path d="M14.0026 21.0006C13.7453 20.981 13.506 20.8613 13.3359 20.6673L9.33591 16.6673C9.24679 16.4807 9.21771 16.271 9.25268 16.0672C9.28765 15.8634 9.38495 15.6754 9.53118 15.5292C9.6774 15.383 9.86536 15.2857 10.0692 15.2507C10.273 15.2158 10.4826 15.2448 10.6692 15.334L13.9626 18.6273L25.3359 7.33396C25.5225 7.24484 25.7322 7.21576 25.936 7.25073C26.1398 7.2857 26.3278 7.383 26.474 7.52922C26.6202 7.67545 26.7175 7.86341 26.7525 8.06723C26.7874 8.27104 26.7584 8.48069 26.6692 8.66729L14.6692 20.6673C14.4992 20.8613 14.2598 20.981 14.0026 21.0006Z" fill="#0A6141"/>
<path d="M15.9962 28.6671C13.8515 28.6637 11.7469 28.0855 9.90147 26.9928C8.05601 25.9 6.53713 24.3327 5.50291 22.4538C4.71675 21.0537 4.23087 19.5053 4.07624 17.9071C3.83221 15.5632 4.28372 13.1993 5.37443 11.1104C6.46515 9.02144 8.14678 7.29987 10.2096 6.16044C11.6096 5.37429 13.158 4.88841 14.7562 4.73377C16.3484 4.56251 17.9588 4.71674 19.4896 5.18711C19.6262 5.2144 19.7556 5.26994 19.8695 5.35016C19.9834 5.43038 20.0793 5.53351 20.151 5.65295C20.2227 5.77238 20.2687 5.90549 20.2859 6.04372C20.3032 6.18196 20.2914 6.32228 20.2513 6.45569C20.2112 6.5891 20.1436 6.71265 20.053 6.81844C19.9623 6.92422 19.8506 7.00989 19.7249 7.06997C19.5992 7.13004 19.4623 7.16319 19.3231 7.16729C19.1838 7.17139 19.0452 7.14635 18.9162 7.09377C17.621 6.70433 16.2611 6.57741 14.9162 6.72044C13.5869 6.85656 12.2988 7.26021 11.1296 7.90711C10.0031 8.52858 9.0071 9.36158 8.19624 10.3604C7.36139 11.378 6.73796 12.5519 6.36249 13.8134C5.98701 15.0749 5.86703 16.3987 6.00957 17.7071C6.14569 19.0364 6.54934 20.3245 7.19624 21.4938C7.81771 22.6203 8.65071 23.6163 9.64957 24.4271C10.6671 25.262 11.841 25.8854 13.1025 26.2609C14.364 26.6363 15.6878 26.7563 16.9962 26.6138C18.3256 26.4777 19.6136 26.074 20.7829 25.4271C21.9094 24.8056 22.9054 23.9726 23.7162 22.9738C24.5511 21.9562 25.1745 20.7823 25.55 19.5208C25.9255 18.2593 26.0454 16.9356 25.9029 15.6271C25.8764 15.3495 25.9612 15.0728 26.1388 14.8577C26.3163 14.6427 26.572 14.507 26.8496 14.4804C27.1272 14.4539 27.4039 14.5388 27.619 14.7163C27.834 14.8938 27.9697 15.1495 27.9962 15.4271C28.239 17.7724 27.7855 20.1372 26.6924 22.2263C25.5992 24.3154 23.9148 26.0362 21.8496 27.1738C20.4347 27.9921 18.8623 28.5011 17.2362 28.6671H15.9962Z" fill="#0A6141"/>
</svg>
