<svg width="185" height="38" viewBox="0 0 185 38" fill="none" xmlns="http://www.w3.org/2000/svg">
<path d="M16.5965 5.52275C16.768 5.17529 17.0334 4.88274 17.3625 4.67819C17.6916 4.47364 18.0714 4.36523 18.4589 4.36523C18.8464 4.36523 19.2262 4.47364 19.5553 4.67819C19.8844 4.88274 20.1498 5.17529 20.3213 5.52275L23.8315 12.6355L31.6804 13.7778C32.0641 13.8332 32.4247 13.9948 32.7213 14.2444C33.0179 14.494 33.2387 14.8217 33.3588 15.1903C33.4789 15.5589 33.4934 15.9538 33.4007 16.3302C33.308 16.7066 33.1118 17.0496 32.8343 17.3203L27.1525 22.8568L28.4933 30.6734C28.559 31.0554 28.5164 31.4483 28.3704 31.8074C28.2245 32.1666 27.9809 32.4777 27.6673 32.7056C27.3536 32.9335 26.9825 33.069 26.5958 33.0969C26.2092 33.1248 25.8224 33.044 25.4793 32.8635L18.4589 29.171L11.4385 32.8635C11.0954 33.044 10.7087 33.1248 10.322 33.0969C9.93531 33.069 9.56417 32.9335 9.25055 32.7056C8.93692 32.4777 8.69334 32.1666 8.54736 31.8074C8.40138 31.4483 8.35882 31.0554 8.42451 30.6734L9.76304 22.8568L4.0858 17.318C3.80903 17.0474 3.6134 16.7047 3.52099 16.3288C3.42857 15.9529 3.44306 15.5586 3.56281 15.1905C3.68256 14.8224 3.90281 14.495 4.1987 14.2454C4.4946 13.9958 4.85436 13.8338 5.23741 13.7778L13.084 12.6355L16.5965 5.52275Z" fill="#FFD21E"/>
<path d="M53.5965 5.52275C53.768 5.17529 54.0334 4.88274 54.3625 4.67819C54.6916 4.47364 55.0714 4.36523 55.4589 4.36523C55.8464 4.36523 56.2262 4.47364 56.5553 4.67819C56.8844 4.88274 57.1498 5.17529 57.3213 5.52275L60.8315 12.6355L68.6804 13.7778C69.0641 13.8332 69.4247 13.9948 69.7213 14.2444C70.0179 14.494 70.2387 14.8217 70.3588 15.1903C70.4789 15.5589 70.4934 15.9538 70.4007 16.3302C70.308 16.7066 70.1118 17.0496 69.8343 17.3203L64.1525 22.8568L65.4933 30.6734C65.559 31.0554 65.5164 31.4483 65.3704 31.8074C65.2245 32.1666 64.9809 32.4777 64.6673 32.7056C64.3536 32.9335 63.9825 33.069 63.5958 33.0969C63.2092 33.1248 62.8224 33.044 62.4793 32.8635L55.4589 29.171L48.4385 32.8635C48.0954 33.044 47.7087 33.1248 47.322 33.0969C46.9353 33.069 46.5642 32.9335 46.2505 32.7056C45.9369 32.4777 45.6933 32.1666 45.5474 31.8074C45.4014 31.4483 45.3588 31.0554 45.4245 30.6734L46.763 22.8568L41.0858 17.318C40.809 17.0474 40.6134 16.7047 40.521 16.3288C40.4286 15.9529 40.4431 15.5586 40.5628 15.1905C40.6826 14.8224 40.9028 14.495 41.1987 14.2454C41.4946 13.9958 41.8544 13.8338 42.2374 13.7778L50.084 12.6355L53.5965 5.52275Z" fill="#FFD21E"/>
<path d="M90.5965 5.52275C90.768 5.17529 91.0334 4.88274 91.3625 4.67819C91.6916 4.47364 92.0714 4.36523 92.4589 4.36523C92.8464 4.36523 93.2262 4.47364 93.5553 4.67819C93.8844 4.88274 94.1498 5.17529 94.3213 5.52275L97.8315 12.6355L105.68 13.7778C106.064 13.8332 106.425 13.9948 106.721 14.2444C107.018 14.494 107.239 14.8217 107.359 15.1903C107.479 15.5589 107.493 15.9538 107.401 16.3302C107.308 16.7066 107.112 17.0496 106.834 17.3203L101.152 22.8568L102.493 30.6734C102.559 31.0554 102.516 31.4483 102.37 31.8074C102.224 32.1666 101.981 32.4777 101.667 32.7056C101.354 32.9335 100.982 33.069 100.596 33.0969C100.209 33.1248 99.8224 33.044 99.4793 32.8635L92.4589 29.171L85.4385 32.8635C85.0954 33.044 84.7087 33.1248 84.322 33.0969C83.9353 33.069 83.5642 32.9335 83.2505 32.7056C82.9369 32.4777 82.6933 32.1666 82.5474 31.8074C82.4014 31.4483 82.3588 31.0554 82.4245 30.6734L83.763 22.8568L78.0858 17.318C77.809 17.0474 77.6134 16.7047 77.521 16.3288C77.4286 15.9529 77.4431 15.5586 77.5628 15.1905C77.6826 14.8224 77.9028 14.495 78.1987 14.2454C78.4946 13.9958 78.8544 13.8338 79.2374 13.7778L87.084 12.6355L90.5965 5.52275Z" fill="#FFD21E"/>
<path d="M127.596 5.52275C127.768 5.17529 128.033 4.88274 128.362 4.67819C128.692 4.47364 129.071 4.36523 129.459 4.36523C129.846 4.36523 130.226 4.47364 130.555 4.67819C130.884 4.88274 131.15 5.17529 131.321 5.52275L134.832 12.6355L142.68 13.7778C143.064 13.8332 143.425 13.9948 143.721 14.2444C144.018 14.494 144.239 14.8217 144.359 15.1903C144.479 15.5589 144.493 15.9538 144.401 16.3302C144.308 16.7066 144.112 17.0496 143.834 17.3203L138.152 22.8568L139.493 30.6734C139.559 31.0554 139.516 31.4483 139.37 31.8074C139.224 32.1666 138.981 32.4777 138.667 32.7056C138.354 32.9335 137.982 33.069 137.596 33.0969C137.209 33.1248 136.822 33.044 136.479 32.8635L129.459 29.171L122.439 32.8635C122.095 33.044 121.709 33.1248 121.322 33.0969C120.935 33.069 120.564 32.9335 120.251 32.7056C119.937 32.4777 119.693 32.1666 119.547 31.8074C119.401 31.4483 119.359 31.0554 119.425 30.6734L120.763 22.8568L115.086 17.318C114.809 17.0474 114.613 16.7047 114.521 16.3288C114.429 15.9529 114.443 15.5586 114.563 15.1905C114.683 14.8224 114.903 14.495 115.199 14.2454C115.495 13.9958 115.854 13.8338 116.237 13.7778L124.084 12.6355L127.596 5.52275Z" fill="#FFD21E"/>
<path d="M164.596 5.52275C164.768 5.17529 165.033 4.88274 165.362 4.67819C165.692 4.47364 166.071 4.36523 166.459 4.36523C166.846 4.36523 167.226 4.47364 167.555 4.67819C167.884 4.88274 168.15 5.17529 168.321 5.52275L171.832 12.6355L179.68 13.7778C180.064 13.8332 180.425 13.9948 180.721 14.2444C181.018 14.494 181.239 14.8217 181.359 15.1903C181.479 15.5589 181.493 15.9538 181.401 16.3302C181.308 16.7066 181.112 17.0496 180.834 17.3203L175.152 22.8568L176.493 30.6734C176.559 31.0554 176.516 31.4483 176.37 31.8074C176.224 32.1666 175.981 32.4777 175.667 32.7056C175.354 32.9335 174.982 33.069 174.596 33.0969C174.209 33.1248 173.822 33.044 173.479 32.8635L166.459 29.171L159.439 32.8635C159.095 33.044 158.709 33.1248 158.322 33.0969C157.935 33.069 157.564 32.9335 157.251 32.7056C156.937 32.4777 156.693 32.1666 156.547 31.8074C156.401 31.4483 156.359 31.0554 156.425 30.6734L157.763 22.8568L152.086 17.318C151.809 17.0474 151.613 16.7047 151.521 16.3288C151.429 15.9529 151.443 15.5586 151.563 15.1905C151.683 14.8224 151.903 14.495 152.199 14.2454C152.495 13.9958 152.854 13.8338 153.237 13.7778L161.084 12.6355L164.596 5.52275Z" fill="#FFD21E"/>
</svg>
