<svg width="32" height="32" viewBox="0 0 32 32" fill="none" xmlns="http://www.w3.org/2000/svg">
<path d="M14.0065 20.3346C13.7492 20.3149 13.5099 20.1953 13.3398 20.0013L9.33982 16.0013C9.2507 15.8147 9.22162 15.605 9.25659 15.4012C9.29156 15.1974 9.38886 15.0094 9.53508 14.8632C9.68131 14.717 9.86927 14.6197 10.0731 14.5847C10.2769 14.5497 10.4865 14.5788 10.6732 14.6679L13.9665 17.9613L25.3398 6.66794C25.5264 6.57882 25.7361 6.54975 25.9399 6.58471C26.1437 6.61968 26.3317 6.71698 26.4779 6.86321C26.6241 7.00943 26.7214 7.19739 26.7564 7.40121C26.7914 7.60503 26.7623 7.81467 26.6732 8.00128L14.6732 20.0013C14.5031 20.1953 14.2637 20.3149 14.0065 20.3346Z" fill="#0A6141"/>
<path d="M15.9923 28.0011C13.8476 27.9976 11.743 27.4195 9.89756 26.3267C8.0521 25.234 6.53323 23.6666 5.499 21.7878C4.71284 20.3877 4.22697 18.8393 4.07233 17.2411C3.82831 14.8972 4.27981 12.5333 5.37053 10.4444C6.46124 8.35542 8.14288 6.63385 10.2057 5.49443C11.6057 4.70827 13.1541 4.22239 14.7523 4.06776C16.3445 3.89649 17.9549 4.05072 19.4857 4.52109C19.6223 4.54839 19.7517 4.60392 19.8656 4.68415C19.9795 4.76437 20.0753 4.8675 20.1471 4.98693C20.2188 5.10637 20.2647 5.23947 20.282 5.37771C20.2993 5.51594 20.2875 5.65626 20.2474 5.78967C20.2073 5.92308 20.1397 6.04664 20.0491 6.15242C19.9584 6.2582 19.8467 6.34388 19.721 6.40395C19.5953 6.46403 19.4584 6.49718 19.3192 6.50128C19.1799 6.50538 19.0413 6.48034 18.9123 6.42776C17.6171 6.03832 16.2572 5.91139 14.9123 6.05443C13.583 6.19055 12.2949 6.5942 11.1257 7.24109C9.99918 7.86256 9.00319 8.69557 8.19233 9.69443C7.35748 10.712 6.73406 11.8859 6.35858 13.1474C5.98311 14.4089 5.86313 15.7326 6.00567 17.0411C6.14179 18.3704 6.54544 19.6585 7.19233 20.8278C7.8138 21.9543 8.64681 22.9502 9.64567 23.7611C10.6632 24.5959 11.8371 25.2194 13.0986 25.5948C14.3601 25.9703 15.6839 26.0903 16.9923 25.9478C18.3217 25.8116 19.6097 25.408 20.779 24.7611C21.9055 24.1396 22.9015 23.3066 23.7123 22.3078C24.5472 21.2902 25.1706 20.1163 25.5461 18.8548C25.9216 17.5933 26.0415 16.2696 25.899 14.9611C25.8725 14.6835 25.9573 14.4067 26.1348 14.1917C26.3124 13.9767 26.5681 13.8409 26.8457 13.8144C27.1233 13.7879 27.4 13.8727 27.6151 14.0503C27.8301 14.2278 27.9658 14.4835 27.9923 14.7611C28.2351 17.1064 27.7816 19.4712 26.6885 21.5603C25.5953 23.6494 23.9109 25.3702 21.8457 26.5078C20.4308 27.3261 18.8584 27.8351 17.2323 28.0011H15.9923Z" fill="#0A6141"/>
</svg>
