<svg width="80" height="16" viewBox="0 0 80 16" fill="none" xmlns="http://www.w3.org/2000/svg">
<path d="M7.19176 2.10117C7.2661 1.95061 7.38107 1.82385 7.52368 1.73522C7.66629 1.64658 7.83085 1.59961 7.99876 1.59961C8.16667 1.59961 8.33123 1.64658 8.47384 1.73522C8.61645 1.82385 8.73143 1.95061 8.80576 2.10117L10.3268 5.18317L13.7278 5.67817C13.894 5.70215 14.0503 5.77219 14.1788 5.88035C14.3073 5.98851 14.403 6.13049 14.455 6.29021C14.5071 6.44994 14.5133 6.62103 14.4732 6.78414C14.433 6.94725 14.348 7.09587 14.2278 7.21317L11.7658 9.61217L12.3468 12.9992C12.3752 13.1647 12.3568 13.3349 12.2935 13.4906C12.2303 13.6462 12.1247 13.781 11.9888 13.8797C11.8529 13.9785 11.6921 14.0372 11.5246 14.0493C11.357 14.0614 11.1894 14.0264 11.0408 13.9482L7.99876 12.3482L4.95676 13.9482C4.80809 14.0264 4.6405 14.0614 4.47296 14.0493C4.30541 14.0372 4.14459 13.9785 4.00869 13.8797C3.8728 13.781 3.76725 13.6462 3.70399 13.4906C3.64074 13.3349 3.6223 13.1647 3.65076 12.9992L4.23076 9.61217L1.77076 7.21217C1.65083 7.0949 1.56606 6.94644 1.52602 6.78354C1.48598 6.62065 1.49225 6.44981 1.54414 6.2903C1.59603 6.13078 1.69147 5.98894 1.81968 5.88078C1.9479 5.77262 2.10378 5.70245 2.26976 5.67817L5.66976 5.18317L7.19176 2.10117Z" fill="#FFD21E"/>
<path d="M23.1918 2.10117C23.2661 1.95061 23.3811 1.82385 23.5237 1.73522C23.6663 1.64658 23.8309 1.59961 23.9988 1.59961C24.1667 1.59961 24.3312 1.64658 24.4738 1.73522C24.6165 1.82385 24.7314 1.95061 24.8058 2.10117L26.3268 5.18317L29.7278 5.67817C29.894 5.70215 30.0503 5.77219 30.1788 5.88035C30.3073 5.98851 30.403 6.13049 30.455 6.29021C30.5071 6.44994 30.5133 6.62103 30.4732 6.78414C30.433 6.94725 30.348 7.09587 30.2278 7.21317L27.7658 9.61217L28.3468 12.9992C28.3752 13.1647 28.3568 13.3349 28.2935 13.4906C28.2303 13.6462 28.1247 13.781 27.9888 13.8797C27.8529 13.9785 27.6921 14.0372 27.5246 14.0493C27.357 14.0614 27.1894 14.0264 27.0408 13.9482L23.9988 12.3482L20.9568 13.9482C20.8081 14.0264 20.6405 14.0614 20.473 14.0493C20.3054 14.0372 20.1446 13.9785 20.0087 13.8797C19.8728 13.781 19.7673 13.6462 19.704 13.4906C19.6407 13.3349 19.6223 13.1647 19.6508 12.9992L20.2308 9.61217L17.7708 7.21217C17.6508 7.0949 17.5661 6.94644 17.526 6.78354C17.486 6.62065 17.4923 6.44981 17.5441 6.2903C17.596 6.13078 17.6915 5.98894 17.8197 5.88078C17.9479 5.77262 18.1038 5.70245 18.2698 5.67817L21.6698 5.18317L23.1918 2.10117Z" fill="#FFD21E"/>
<path d="M39.6401 2.32257L39.6401 2.32253C39.6731 2.25561 39.7242 2.19927 39.7876 2.15988C39.851 2.12049 39.9241 2.09961 39.9988 2.09961C40.0734 2.09961 40.1465 2.12049 40.2099 2.15988C40.2733 2.19926 40.3243 2.25557 40.3574 2.32245C40.3574 2.32248 40.3574 2.3225 40.3574 2.32253L41.8784 5.40445L41.9947 5.64011L42.2547 5.67796L45.6557 6.17296L45.6564 6.17305C45.7303 6.18371 45.7997 6.21484 45.8568 6.26291C45.914 6.31098 45.9565 6.37408 45.9796 6.44507C46.0027 6.51606 46.0055 6.5921 45.9877 6.6646C45.9698 6.73709 45.932 6.80314 45.8786 6.85527L43.4168 9.25407L43.2285 9.43756L43.273 9.69671L43.854 13.0837L43.854 13.0839C43.8666 13.1575 43.8584 13.2331 43.8303 13.3023C43.8022 13.3715 43.7553 13.4314 43.6949 13.4753C43.6345 13.5191 43.563 13.5452 43.4886 13.5506C43.4141 13.556 43.3396 13.5404 43.2735 13.5057L43.2735 13.5057L40.2315 11.9057L39.9988 11.7832L39.766 11.9057L36.724 13.5057L36.724 13.5057C36.6579 13.5404 36.5834 13.556 36.509 13.5506C36.4345 13.5452 36.363 13.5191 36.3026 13.4753C36.2422 13.4314 36.1953 13.3715 36.1672 13.3023C36.1391 13.2331 36.1309 13.1575 36.1435 13.0839L36.1436 13.0836L36.7236 9.69657L36.7679 9.43769L36.5799 9.25428L34.1203 6.85469C34.1203 6.85461 34.1202 6.85454 34.1201 6.85446C34.0669 6.80237 34.0293 6.73648 34.0116 6.66419C33.9938 6.59179 33.9966 6.51586 34.0196 6.44496C34.0427 6.37407 34.0851 6.31103 34.1421 6.26296C34.199 6.21492 34.2683 6.18373 34.342 6.17293C34.342 6.17292 34.3421 6.17292 34.3421 6.17291L37.7418 5.67796L38.0018 5.64011L38.1181 5.40457L39.6401 2.32257Z" stroke="#FFD21E"/>
<path d="M55.6401 2.32257L55.6401 2.32253C55.6731 2.25561 55.7242 2.19927 55.7876 2.15988C55.851 2.12049 55.9241 2.09961 55.9988 2.09961C56.0734 2.09961 56.1465 2.12049 56.2099 2.15988C56.2733 2.19926 56.3243 2.25557 56.3574 2.32245C56.3574 2.32248 56.3574 2.3225 56.3574 2.32253L57.8784 5.40445L57.9947 5.64011L58.2547 5.67796L61.6557 6.17296L61.6564 6.17305C61.7303 6.18371 61.7997 6.21484 61.8568 6.26291C61.914 6.31098 61.9565 6.37408 61.9796 6.44507C62.0027 6.51606 62.0055 6.5921 61.9877 6.6646C61.9698 6.73709 61.932 6.80314 61.8786 6.85527L59.4168 9.25407L59.2285 9.43756L59.273 9.69671L59.854 13.0837L59.854 13.0839C59.8666 13.1575 59.8584 13.2331 59.8303 13.3023C59.8022 13.3715 59.7553 13.4314 59.6949 13.4753C59.6345 13.5191 59.563 13.5452 59.4886 13.5506C59.4141 13.556 59.3396 13.5404 59.2735 13.5057L59.2735 13.5057L56.2315 11.9057L55.9988 11.7832L55.766 11.9057L52.724 13.5057L52.724 13.5057C52.6579 13.5404 52.5834 13.556 52.509 13.5506C52.4345 13.5452 52.363 13.5191 52.3026 13.4753C52.2422 13.4314 52.1953 13.3715 52.1672 13.3023C52.1391 13.2331 52.1309 13.1575 52.1435 13.0839L52.1436 13.0836L52.7236 9.69657L52.7679 9.43769L52.5799 9.25428L50.1203 6.85469C50.1203 6.85461 50.1202 6.85454 50.1201 6.85446C50.0669 6.80237 50.0293 6.73648 50.0116 6.66419C49.9938 6.59179 49.9966 6.51586 50.0196 6.44496C50.0427 6.37407 50.0851 6.31103 50.1421 6.26296C50.199 6.21492 50.2683 6.18373 50.342 6.17293C50.342 6.17292 50.3421 6.17292 50.3421 6.17291L53.7418 5.67796L54.0018 5.64011L54.1181 5.40457L55.6401 2.32257Z" stroke="#FFD21E"/>
<path d="M71.6401 2.32257L71.6401 2.32253C71.6731 2.25561 71.7242 2.19927 71.7876 2.15988C71.851 2.12049 71.9241 2.09961 71.9988 2.09961C72.0734 2.09961 72.1465 2.12049 72.2099 2.15988C72.2733 2.19926 72.3243 2.25557 72.3574 2.32245C72.3574 2.32248 72.3574 2.3225 72.3574 2.32253L73.8784 5.40445L73.9947 5.64011L74.2547 5.67796L77.6557 6.17296L77.6564 6.17305C77.7303 6.18371 77.7997 6.21484 77.8568 6.26291C77.914 6.31098 77.9565 6.37408 77.9796 6.44507C78.0027 6.51606 78.0055 6.5921 77.9877 6.6646C77.9698 6.73709 77.932 6.80314 77.8786 6.85527L75.4168 9.25407L75.2285 9.43756L75.273 9.69671L75.854 13.0837L75.854 13.0839C75.8666 13.1575 75.8584 13.2331 75.8303 13.3023C75.8022 13.3715 75.7553 13.4314 75.6949 13.4753C75.6345 13.5191 75.563 13.5452 75.4886 13.5506C75.4141 13.556 75.3396 13.5404 75.2735 13.5057L75.2735 13.5057L72.2315 11.9057L71.9988 11.7832L71.766 11.9057L68.724 13.5057L68.724 13.5057C68.6579 13.5404 68.5834 13.556 68.509 13.5506C68.4345 13.5452 68.363 13.5191 68.3026 13.4753C68.2422 13.4314 68.1953 13.3715 68.1672 13.3023C68.1391 13.2331 68.1309 13.1575 68.1435 13.0839L68.1436 13.0836L68.7236 9.69657L68.7679 9.43769L68.5799 9.25428L66.1203 6.85469C66.1203 6.85461 66.1202 6.85454 66.1201 6.85446C66.0669 6.80237 66.0293 6.73648 66.0116 6.66419C65.9938 6.59179 65.9966 6.51586 66.0196 6.44496C66.0427 6.37407 66.0851 6.31103 66.1421 6.26296C66.199 6.21492 66.2683 6.18373 66.342 6.17293C66.342 6.17292 66.3421 6.17292 66.3421 6.17291L69.7418 5.67796L70.0018 5.64011L70.1181 5.40457L71.6401 2.32257Z" stroke="#FFD21E"/>
</svg>
