<svg width="37" height="37" viewBox="0 0 37 37" fill="none" xmlns="http://www.w3.org/2000/svg">
<path d="M17.4931 5.29952L17.4932 5.29945C17.5821 5.11927 17.7197 4.96757 17.8904 4.8615C18.061 4.75543 18.258 4.69922 18.4589 4.69922C18.6598 4.69922 18.8568 4.75543 19.0274 4.8615C19.1981 4.96754 19.3356 5.11918 19.4246 5.29929C19.4246 5.29934 19.4246 5.29939 19.4246 5.29945L22.9348 12.412L23.1674 12.8833L23.6875 12.959L31.5364 14.1014L31.5376 14.1016C31.7366 14.1303 31.9236 14.2141 32.0774 14.3435C32.2312 14.473 32.3457 14.6429 32.408 14.834C32.4702 15.0251 32.4778 15.2299 32.4297 15.4251C32.3816 15.6203 32.2799 15.7981 32.136 15.9385L26.4546 21.4746L26.0779 21.8415L26.1669 22.3598L27.5077 30.1764L27.5078 30.1768C27.5418 30.3749 27.5198 30.5786 27.4441 30.7648C27.3684 30.9511 27.2421 31.1124 27.0794 31.2306C26.9168 31.3487 26.7243 31.419 26.5238 31.4335C26.3233 31.448 26.1228 31.4061 25.9449 31.3125L25.9448 31.3124L18.9244 27.6199L18.4589 27.3751L17.9934 27.6199L10.973 31.3124L10.9729 31.3125C10.795 31.4061 10.5945 31.448 10.394 31.4335C10.1935 31.419 10.001 31.3487 9.83839 31.2306C9.67576 31.1124 9.54945 30.9511 9.47375 30.7648C9.39805 30.5786 9.37599 30.3749 9.41005 30.1768L9.41016 30.1761L10.7487 22.3596L10.8374 21.8418L10.4614 21.475L4.78496 15.937C4.78484 15.9369 4.78472 15.9368 4.78461 15.9367C4.64127 15.7964 4.53996 15.6189 4.49208 15.4241C4.44416 15.2292 4.45167 15.0247 4.51376 14.8338C4.57586 14.6429 4.69007 14.4732 4.8435 14.3437C4.9969 14.2143 5.18339 14.1304 5.38195 14.1013C5.38201 14.1013 5.38206 14.1013 5.38212 14.1013L13.2281 12.959L13.748 12.8833L13.9806 12.4122L17.4931 5.29952Z" stroke="#FFD21E" strokeWidth"2"/>
</svg>
