<svg width="16" height="16" viewBox="0 0 16 16" fill="none" xmlns="http://www.w3.org/2000/svg">
<path d="M7.64007 2.32257L7.64009 2.32253C7.67313 2.25561 7.72423 2.19927 7.78761 2.15988C7.851 2.12049 7.92413 2.09961 7.99876 2.09961C8.07339 2.09961 8.14653 2.12049 8.20991 2.15988C8.27327 2.19926 8.32435 2.25557 8.35739 2.32245C8.3574 2.32248 8.35741 2.3225 8.35743 2.32253L9.87839 5.40445L9.99469 5.64011L10.2547 5.67796L13.6557 6.17296L13.6564 6.17305C13.7303 6.18371 13.7997 6.21484 13.8568 6.26291C13.914 6.31098 13.9565 6.37408 13.9796 6.44507C14.0027 6.51606 14.0055 6.5921 13.9877 6.6646C13.9698 6.73709 13.932 6.80314 13.8786 6.85527L11.4168 9.25407L11.2285 9.43756L11.273 9.69671L11.854 13.0837L11.854 13.0839C11.8666 13.1575 11.8584 13.2331 11.8303 13.3023C11.8022 13.3715 11.7553 13.4314 11.6949 13.4753C11.6345 13.5191 11.563 13.5452 11.4886 13.5506C11.4141 13.556 11.3396 13.5404 11.2735 13.5057L11.2735 13.5057L8.23151 11.9057L7.99876 11.7832L7.76601 11.9057L4.72401 13.5057L4.72398 13.5057C4.6579 13.5404 4.58342 13.556 4.50895 13.5506C4.43448 13.5452 4.36301 13.5191 4.30261 13.4753C4.24221 13.4314 4.1953 13.3715 4.16719 13.3023C4.13908 13.2331 4.13088 13.1575 4.14353 13.0839L4.14359 13.0836L4.72359 9.69657L4.76792 9.43769L4.57992 9.25428L2.12034 6.85469C2.12026 6.85461 2.12018 6.85454 2.1201 6.85446C2.06693 6.80237 2.02933 6.73648 2.01156 6.66419C1.99377 6.59179 1.99656 6.51586 2.01962 6.44496C2.04268 6.37407 2.0851 6.31103 2.14208 6.26296C2.19903 6.21492 2.26827 6.18373 2.34199 6.17293C2.34203 6.17292 2.34207 6.17292 2.34212 6.17291L5.7418 5.67796L6.00175 5.64011L6.11807 5.40457L7.64007 2.32257Z" stroke="#FFD21E"/>
</svg>
