<svg width="16" height="16" viewBox="0 0 16 16" fill="none" xmlns="http://www.w3.org/2000/svg">
<path d="M7.19176 2.10117C7.2661 1.95061 7.38107 1.82385 7.52368 1.73522C7.66629 1.64658 7.83085 1.59961 7.99876 1.59961C8.16667 1.59961 8.33123 1.64658 8.47384 1.73522C8.61645 1.82385 8.73143 1.95061 8.80576 2.10117L10.3268 5.18317L13.7278 5.67817C13.894 5.70215 14.0503 5.77219 14.1788 5.88035C14.3073 5.98851 14.403 6.13049 14.455 6.29021C14.5071 6.44994 14.5133 6.62103 14.4732 6.78414C14.433 6.94725 14.348 7.09587 14.2278 7.21317L11.7658 9.61217L12.3468 12.9992C12.3752 13.1647 12.3568 13.3349 12.2935 13.4906C12.2303 13.6462 12.1247 13.781 11.9888 13.8797C11.8529 13.9785 11.6921 14.0372 11.5246 14.0493C11.357 14.0614 11.1894 14.0264 11.0408 13.9482L7.99876 12.3482L4.95676 13.9482C4.80809 14.0264 4.6405 14.0614 4.47296 14.0493C4.30541 14.0372 4.14459 13.9785 4.00869 13.8797C3.8728 13.781 3.76725 13.6462 3.70399 13.4906C3.64074 13.3349 3.6223 13.1647 3.65076 12.9992L4.23076 9.61217L1.77076 7.21217C1.65083 7.0949 1.56606 6.94644 1.52602 6.78354C1.48598 6.62065 1.49225 6.44981 1.54414 6.2903C1.59603 6.13078 1.69147 5.98894 1.81968 5.88078C1.9479 5.77262 2.10378 5.70245 2.26976 5.67817L5.66976 5.18317L7.19176 2.10117Z" fill="#FFD21E"/>
</svg>
