<svg width="37" height="37" viewBox="0 0 37 37" fill="none" xmlns="http://www.w3.org/2000/svg">
<path d="M16.5965 4.85674C16.768 4.50927 17.0334 4.21673 17.3625 4.01218C17.6916 3.80762 18.0714 3.69922 18.4589 3.69922C18.8464 3.69922 19.2262 3.80762 19.5553 4.01218C19.8844 4.21673 20.1498 4.50927 20.3213 4.85674L23.8315 11.9694L31.6804 13.1118C32.0641 13.1671 32.4247 13.3288 32.7213 13.5784C33.0179 13.828 33.2387 14.1557 33.3588 14.5243C33.4789 14.8929 33.4934 15.2878 33.4007 15.6642C33.308 16.0406 33.1118 16.3836 32.8343 16.6543L27.1525 22.1908L28.4933 30.0074C28.559 30.3894 28.5164 30.7823 28.3704 31.1414C28.2245 31.5005 27.9809 31.8117 27.6673 32.0395C27.3536 32.2674 26.9825 32.403 26.5958 32.4309C26.2092 32.4588 25.8224 32.378 25.4793 32.1975L18.4589 28.505L11.4385 32.1975C11.0954 32.378 10.7087 32.4588 10.322 32.4309C9.93531 32.403 9.56417 32.2674 9.25055 32.0395C8.93692 31.8117 8.69334 31.5005 8.54736 31.1414C8.40138 30.7823 8.35882 30.3894 8.42451 30.0074L9.76304 22.1908L4.0858 16.652C3.80903 16.3813 3.6134 16.0387 3.52099 15.6628C3.42857 15.2869 3.44306 14.8926 3.56281 14.5245C3.68256 14.1563 3.90281 13.829 4.1987 13.5794C4.4946 13.3298 4.85436 13.1678 5.23741 13.1118L13.084 11.9694L16.5965 4.85674Z" fill="#FFD21E"/>
</svg>
