<svg width="23" height="23" viewBox="0 0 23 23" fill="none" xmlns="http://www.w3.org/2000/svg">
<path d="M11.4974 1.91602C7.78865 1.91602 4.78906 4.9156 4.78906 8.62435C4.78906 13.6556 11.4974 21.0827 11.4974 21.0827C11.4974 21.0827 18.2057 13.6556 18.2057 8.62435C18.2057 4.9156 15.2061 1.91602 11.4974 1.91602ZM6.70573 8.62435C6.70573 5.97935 8.8524 3.83268 11.4974 3.83268C14.1424 3.83268 16.2891 5.97935 16.2891 8.62435C16.2891 11.3843 13.5291 15.5148 11.4974 18.0927C9.50406 15.5339 6.70573 11.3556 6.70573 8.62435Z" fill="black"/>
<path d="M11.4974 11.0202C12.8206 11.0202 13.8932 9.94753 13.8932 8.62435C13.8932 7.30117 12.8206 6.22852 11.4974 6.22852C10.1742 6.22852 9.10156 7.30117 9.10156 8.62435C9.10156 9.94753 10.1742 11.0202 11.4974 11.0202Z" fill="black"/>
</svg>
