<svg width="35" height="35" viewBox="0 0 35 35" fill="none" xmlns="http://www.w3.org/2000/svg">
<path d="M16.4406 29.6234C16.309 29.7626 16.2062 29.9264 16.1379 30.1054C16.0696 30.2844 16.0373 30.4751 16.0427 30.6665C16.0481 30.858 16.0912 31.0466 16.1695 31.2214C16.2477 31.3962 16.3597 31.5539 16.4989 31.6855C16.6382 31.8171 16.8019 31.9199 16.9809 31.9882C17.1599 32.0565 17.3506 32.0888 17.542 32.0834C17.7335 32.078 17.9221 32.0349 18.0969 31.9566C18.2717 31.8783 18.4294 31.7664 18.561 31.6272L30.9568 18.5022C31.2128 18.2314 31.3555 17.8729 31.3555 17.5003C31.3555 17.1277 31.2128 16.7692 30.9568 16.4984L18.561 3.37196C18.4303 3.22968 18.2726 3.11479 18.0972 3.03396C17.9217 2.95314 17.7319 2.90798 17.5388 2.90112C17.3458 2.89426 17.1532 2.92584 16.9725 2.99401C16.7917 3.06217 16.6263 3.16558 16.4858 3.29823C16.3453 3.43087 16.2326 3.5901 16.1542 3.76667C16.0758 3.94324 16.0333 4.13363 16.0291 4.32678C16.0249 4.51993 16.0591 4.71199 16.1297 4.89181C16.2004 5.07163 16.306 5.23562 16.4406 5.37425L27.8914 17.5003L16.4406 29.6234Z" fill="#0A6141"/>
</svg>
