<svg width="35" height="35" viewBox="0 0 35 35" fill="none" xmlns="http://www.w3.org/2000/svg">
<path d="M18.5594 5.37659C18.691 5.23736 18.7938 5.07358 18.8621 4.8946C18.9304 4.71562 18.9627 4.52495 18.9573 4.33346C18.9519 4.14198 18.9088 3.95344 18.8305 3.77861C18.7523 3.60377 18.6403 3.44607 18.5011 3.3145C18.3618 3.18294 18.1981 3.08008 18.0191 3.01181C17.8401 2.94353 17.6494 2.91118 17.458 2.9166C17.2665 2.92202 17.0779 2.96509 16.9031 3.04338C16.7283 3.12166 16.5706 3.23361 16.439 3.37284L4.04316 16.4978C3.78717 16.7686 3.64453 17.1271 3.64453 17.4997C3.64453 17.8723 3.78717 18.2308 4.04316 18.5016L16.439 31.628C16.5697 31.7703 16.7274 31.8852 16.9028 31.966C17.0783 32.0469 17.2681 32.092 17.4612 32.0989C17.6542 32.1057 17.8468 32.0742 18.0275 32.006C18.2083 31.9378 18.3737 31.8344 18.5142 31.7018C18.6547 31.5691 18.7674 31.4099 18.8458 31.2333C18.9242 31.0568 18.9667 30.8664 18.9709 30.6732C18.9751 30.4801 18.9409 30.288 18.8703 30.1082C18.7996 29.9284 18.694 29.7644 18.5594 29.6258L7.10857 17.4997L18.5594 5.37659Z" fill="#0A6141"/>
</svg>
