<svg width="26" height="37" viewBox="0 0 26 37" fill="none" xmlns="http://www.w3.org/2000/svg">
<path d="M12.8333 0C5.73833 0 0 5.73833 0 12.8333C0 22.4583 12.8333 36.6667 12.8333 36.6667C12.8333 36.6667 25.6667 22.4583 25.6667 12.8333C25.6667 5.73833 19.9283 0 12.8333 0ZM3.66667 12.8333C3.66667 7.77333 7.77333 3.66667 12.8333 3.66667C17.8933 3.66667 22 7.77333 22 12.8333C22 18.1133 16.72 26.015 12.8333 30.9467C9.02 26.0517 3.66667 18.0583 3.66667 12.8333Z" fill="#0A6141"/>
<path d="M12.8333 17.4167C15.3646 17.4167 17.4167 15.3646 17.4167 12.8333C17.4167 10.302 15.3646 8.25 12.8333 8.25C10.302 8.25 8.25 10.302 8.25 12.8333C8.25 15.3646 10.302 17.4167 12.8333 17.4167Z" fill="#0A6141"/>
</svg>
