<svg width="26" height="25" viewBox="0 0 26 25" fill="none" xmlns="http://www.w3.org/2000/svg">
<path d="M4.16797 21.0029V21.0037C4.16733 21.7583 4.40132 22.3801 4.8727 22.9183C5.32502 23.4347 5.84067 23.666 6.48047 23.666C7.54903 23.666 8.60703 23.5761 9.65509 23.3962C10.8154 23.1971 11.9865 23.0976 13.168 23.0976C14.3494 23.0976 15.5206 23.1971 16.6808 23.3962C17.7289 23.5761 18.7869 23.666 19.8555 23.666H19.8564C20.4943 23.6666 21.0092 23.4358 21.4616 22.9187C21.9335 22.3793 22.1678 21.7571 22.168 21.0036L4.16797 21.0029ZM4.16797 21.0029C4.16797 20.158 4.44457 19.438 5.02079 18.7987C5.75876 17.9799 6.49089 17.1716 7.21717 16.3738C7.87172 15.6663 8.437 14.8952 8.91187 14.0616C9.31341 13.3568 9.79236 12.693 10.3504 12.07L10.3615 12.0576M4.16797 21.0029L10.3615 12.0576M10.3615 12.0576L10.3722 12.0449M10.3615 12.0576L10.3722 12.0449M10.3722 12.0449C10.759 11.5828 11.2038 11.2045 11.7089 10.9053C12.1573 10.6397 12.6373 10.5081 13.168 10.5081C13.7101 10.5081 14.1982 10.635 14.6498 10.8868C15.1439 11.1623 15.5812 11.5248 15.9638 11.9817L15.9691 11.988M10.3722 12.0449L15.9691 11.988M15.9691 11.988L15.9745 11.9943M15.9691 11.988L15.9745 11.9943M15.9745 11.9943C16.5157 12.6193 16.9945 13.2934 17.4113 14.0175C17.8945 14.857 18.4612 15.6397 19.1105 16.3647L19.1105 16.3648M15.9745 11.9943L19.1105 16.3648M19.1105 16.3648L19.1164 16.3712M19.1105 16.3648L19.1164 16.3712M19.1164 16.3712C19.8442 17.1697 20.5769 17.9787 21.3148 18.7982M19.1164 16.3712L21.3148 18.7982M21.3148 18.7982C21.8904 19.4377 22.1673 20.1582 22.168 21.0035L21.3148 18.7982ZM7.91002 2.2852L7.22784 1.61013L7.91002 2.2852C8.32244 1.86843 8.80439 1.66602 9.41797 1.66602C10.0316 1.66602 10.5135 1.86843 10.9259 2.2852C11.3388 2.70243 11.543 3.19444 11.543 3.82391C11.543 4.45338 11.3388 4.94539 10.9259 5.36262C10.5135 5.77939 10.0316 5.9818 9.41797 5.9818C8.80439 5.9818 8.32244 5.77939 7.91002 5.36262C7.49713 4.94539 7.29297 4.45338 7.29297 3.82391C7.29297 3.19444 7.49713 2.70243 7.91002 2.2852ZM3.79297 11.0344C3.17939 11.0344 2.69744 10.832 2.28502 10.4153C1.87213 9.99802 1.66797 9.50601 1.66797 8.87654C1.66797 8.24707 1.87213 7.75506 2.28502 7.33783C2.69744 6.92106 3.17939 6.71865 3.79297 6.71865C4.40655 6.71865 4.88849 6.92106 5.30092 7.33783C5.71381 7.75506 5.91797 8.24707 5.91797 8.87654C5.91797 9.50601 5.71381 9.99802 5.30092 10.4153C4.88849 10.832 4.40655 11.0344 3.79297 11.0344ZM16.918 5.9818C16.3044 5.9818 15.8224 5.77939 15.41 5.36262C14.9971 4.94539 14.793 4.45338 14.793 3.82391C14.793 3.19444 14.9971 2.70243 15.41 2.2852C15.8224 1.86843 16.3044 1.66602 16.918 1.66602C17.5316 1.66602 18.0135 1.86843 18.4259 2.2852C18.8388 2.70243 19.043 3.19444 19.043 3.82391C19.043 4.45338 18.8388 4.94539 18.4259 5.36262C18.0135 5.77939 17.5316 5.9818 16.918 5.9818ZM22.543 11.0344C21.9294 11.0344 21.4474 10.832 21.035 10.4152C20.6221 9.99802 20.418 9.50601 20.418 8.87654C20.418 8.24708 20.6221 7.75506 21.035 7.33783C21.4474 6.92106 21.9294 6.71865 22.543 6.71865C23.1566 6.71865 23.6385 6.92106 24.0509 7.33783C24.4638 7.75506 24.668 8.24708 24.668 8.87654C24.668 9.50601 24.4638 9.99802 24.0509 10.4153C23.6385 10.832 23.1565 11.0344 22.543 11.0344Z" stroke="#0A6141" strokeWidth"2"/>
</svg>
