<svg width="80" height="80" viewBox="0 0 80 80" fill="none" xmlns="http://www.w3.org/2000/svg">
<mask id="mask0_954_4305" style="mask-type:alpha" maskUnits="userSpaceOnUse" x="7" y="7" width="67" height="67">
<rect x="7" y="7" width="66.67" height="66.67" fill="#D9D9D9"/>
</mask>
<g mask="url(#mask0_954_4305)">
<path d="M35.6681 46.3353L28.5011 39.1683C27.8899 38.5571 27.1121 38.2516 26.1676 38.2516C25.2231 38.2516 24.4453 38.5571 23.8342 39.1683C23.223 39.7794 22.9175 40.5572 22.9175 41.5017C22.9175 42.4462 23.223 43.224 23.8342 43.8352L33.3346 53.3357C34.0013 54.0024 34.7792 54.3357 35.6681 54.3357C36.557 54.3357 37.3348 54.0024 38.0015 53.3357L56.8358 34.5014C57.447 33.8902 57.7525 33.1124 57.7525 32.1679C57.7525 31.2234 57.447 30.4456 56.8358 29.8345C56.2247 29.2233 55.4469 28.9178 54.5024 28.9178C53.5579 28.9178 52.7801 29.2233 52.1689 29.8345L35.6681 46.3353ZM40.335 73.67C35.7237 73.67 31.3901 72.795 27.3343 71.0449C23.2786 69.2948 19.7506 66.9197 16.7505 63.9195C13.7503 60.9194 11.3752 57.3914 9.62513 53.3357C7.87504 49.2799 7 44.9463 7 40.335C7 35.7237 7.87504 31.3901 9.62513 27.3343C11.3752 23.2786 13.7503 19.7506 16.7505 16.7505C19.7506 13.7503 23.2786 11.3752 27.3343 9.62513C31.3901 7.87504 35.7237 7 40.335 7C44.9463 7 49.2799 7.87504 53.3357 9.62513C57.3914 11.3752 60.9194 13.7503 63.9195 16.7505C66.9197 19.7506 69.2948 23.2786 71.0449 27.3343C72.795 31.3901 73.67 35.7237 73.67 40.335C73.67 44.9463 72.795 49.2799 71.0449 53.3357C69.2948 57.3914 66.9197 60.9194 63.9195 63.9195C60.9194 66.9197 57.3914 69.2948 53.3357 71.0449C49.2799 72.795 44.9463 73.67 40.335 73.67ZM40.335 67.003C47.7798 67.003 54.0857 64.4195 59.2526 59.2526C64.4195 54.0857 67.003 47.7798 67.003 40.335C67.003 32.8902 64.4195 26.5843 59.2526 21.4174C54.0857 16.2505 47.7798 13.667 40.335 13.667C32.8902 13.667 26.5843 16.2505 21.4174 21.4174C16.2505 26.5843 13.667 32.8902 13.667 40.335C13.667 47.7798 16.2505 54.0857 21.4174 59.2526C26.5843 64.4195 32.8902 67.003 40.335 67.003Z" fill="#46E449"/>
</g>
</svg>
