<svg width="25" height="26" viewBox="0 0 25 26" fill="none" xmlns="http://www.w3.org/2000/svg">
<path d="M22.4169 10.6014C22.4169 10.3464 22.3158 10.1018 22.1358 9.92147C21.9558 9.74114 21.7117 9.63983 21.4572 9.63983C21.2026 9.63983 20.9585 9.74114 20.7786 9.92147C20.5986 10.1018 20.4975 10.3464 20.4975 10.6014H22.4169ZM4.50253 10.6014C4.50253 10.3464 4.40141 10.1018 4.22144 9.92147C4.04146 9.74114 3.79736 9.63983 3.54283 9.63983C3.2883 9.63983 3.0442 9.74114 2.86422 9.92147C2.68424 10.1018 2.58313 10.3464 2.58313 10.6014H4.50253ZM23.3382 13.8451C23.426 13.9396 23.532 14.0154 23.6497 14.0679C23.7674 14.1205 23.8945 14.1487 24.0234 14.151C24.1522 14.1533 24.2802 14.1295 24.3997 14.0812C24.5192 14.0328 24.6278 13.9608 24.7189 13.8695C24.81 13.7782 24.8819 13.6694 24.9302 13.5497C24.9784 13.43 25.0021 13.3017 24.9999 13.1726C24.9976 13.0435 24.9694 12.9162 24.9169 12.7982C24.8645 12.6803 24.7888 12.5741 24.6946 12.4861L23.3382 13.8451ZM12.5 1.62674L13.1782 0.94723C12.9982 0.76716 12.7543 0.666016 12.5 0.666016C12.2457 0.666016 12.0018 0.76716 11.8218 0.94723L12.5 1.62674ZM0.30545 12.4861C0.211161 12.5741 0.135534 12.6803 0.0830809 12.7982C0.0306278 12.9162 0.00242292 13.0435 0.000149356 13.1726C-0.00212421 13.3017 0.0215798 13.43 0.0698475 13.5497C0.118115 13.6694 0.189958 13.7782 0.281089 13.8695C0.37222 13.9608 0.480773 14.0328 0.600272 14.0812C0.719772 14.1295 0.847768 14.1533 0.976627 14.151C1.10549 14.1487 1.23257 14.1205 1.35029 14.0679C1.46801 14.0154 1.57396 13.9396 1.66182 13.8451L0.30545 12.4861ZM6.10202 25.666H18.898V23.7429H6.10202V25.666ZM22.4169 22.1403V10.6014H20.4975V22.1403H22.4169ZM4.50253 22.1403V10.6014H2.58313V22.1403H4.50253ZM24.6946 12.4861L13.1782 0.94723L11.8218 2.30625L23.3382 13.8451L24.6946 12.4861ZM11.8218 0.94723L0.30545 12.4861L1.66182 13.8451L13.1782 2.30625L11.8218 0.94723ZM18.898 25.666C19.8312 25.666 20.7263 25.2946 21.3862 24.6333C22.0461 23.9721 22.4169 23.0753 22.4169 22.1403H20.4975C20.4975 23.0249 19.7809 23.7429 18.898 23.7429V25.666ZM6.10202 23.7429C5.2191 23.7429 4.50253 23.0249 4.50253 22.1403H2.58313C2.58313 23.0753 2.95387 23.9721 3.61379 24.6333C4.27371 25.2946 5.16875 25.666 6.10202 25.666V23.7429Z" fill="#0A6141"/>
</svg>
