<svg width="29" height="26" viewBox="0 0 29 26" fill="none" xmlns="http://www.w3.org/2000/svg">
<path d="M24.9853 21.0484C25.8851 21.4948 26.6288 22.1226 27.2164 22.9317C27.8041 23.7408 28.1759 24.6523 28.332 25.666H26.817C26.716 25.1359 26.5278 24.643 26.2523 24.1872C25.9769 23.7315 25.6418 23.3409 25.2469 23.0154C24.8521 22.6899 24.4068 22.4295 23.911 22.2342C23.4152 22.0388 22.901 21.9458 22.3684 21.9551C21.8267 21.9551 21.3125 22.0481 20.8259 22.2342C20.3392 22.4202 19.8939 22.6759 19.4899 23.0014C19.0859 23.327 18.7508 23.7222 18.4845 24.1872C18.2182 24.6523 18.03 25.1452 17.9198 25.666H16.4048C16.5517 24.6616 16.919 23.7548 17.5066 22.9456C18.0943 22.1365 18.8426 21.5041 19.7516 21.0484C19.2282 20.6298 18.8242 20.123 18.5396 19.5277C18.255 18.9325 18.1081 18.3001 18.0989 17.6304C18.0989 17.2119 18.154 16.8074 18.2642 16.4167C18.3743 16.0261 18.5396 15.6587 18.76 15.3146C18.9803 14.9705 19.242 14.6636 19.545 14.3939C19.848 14.1242 20.1877 13.8963 20.5642 13.7103C20.3163 13.3476 20.0317 13.0267 19.7103 12.7477C19.3889 12.4687 19.04 12.2222 18.6636 12.0083C18.2871 11.7944 17.8923 11.641 17.4791 11.548C17.0659 11.455 16.639 11.3992 16.1982 11.3806C15.4637 11.3806 14.7613 11.5247 14.091 11.813C13.4207 12.1013 12.8377 12.5245 12.3419 13.0825C12.5622 13.6871 12.6724 14.3102 12.6724 14.9519C12.6724 15.8076 12.4842 16.612 12.1077 17.3654C11.7313 18.1187 11.2033 18.7511 10.5239 19.2627C11.1207 19.5696 11.6578 19.9462 12.1353 20.3927C12.6127 20.8391 13.0259 21.3413 13.3748 21.8993C13.7237 22.4574 13.9854 23.0526 14.1599 23.685C14.3343 24.3175 14.4261 24.9778 14.4353 25.666H12.6724C12.6724 24.9313 12.5347 24.2384 12.2592 23.5874C11.9838 22.9363 11.6073 22.369 11.1299 21.8854C10.6524 21.4018 10.0877 21.0158 9.43582 20.7275C8.78391 20.4392 8.09986 20.2997 7.38368 20.309C6.64913 20.309 5.96509 20.4485 5.33154 20.7275C4.69799 21.0065 4.1379 21.3878 3.65126 21.8714C3.16463 22.3551 2.78358 22.927 2.50813 23.5874C2.23267 24.2477 2.09494 24.9406 2.09494 25.666H0.332031C0.332031 24.9871 0.42385 24.3314 0.607486 23.699C0.791123 23.0665 1.05281 22.4713 1.39253 21.9133C1.73226 21.3553 2.14085 20.853 2.61831 20.4066C3.09576 19.9602 3.63749 19.5789 4.24349 19.2627C3.56404 18.7511 3.03608 18.1187 2.65963 17.3654C2.28317 16.612 2.09494 15.8076 2.09494 14.9519C2.09494 14.2172 2.23267 13.5243 2.50813 12.8733C2.78358 12.2222 3.16004 11.6549 3.63749 11.1713C4.11495 10.6877 4.67504 10.3017 5.31777 10.0134C5.96049 9.72507 6.64913 9.58557 7.38368 9.59487C8.16413 9.59487 8.90327 9.76227 9.60109 10.0971C10.2989 10.4319 10.9049 10.8969 11.4191 11.4922C11.6578 11.2596 11.9149 11.0504 12.1904 10.8644C12.4658 10.6784 12.7551 10.5017 13.0581 10.3343C12.3786 9.82273 11.8506 9.1903 11.4742 8.43696C11.0977 7.68363 10.9095 6.87914 10.9095 6.0235C10.9095 5.28877 11.0472 4.59588 11.3227 3.94485C11.5981 3.29382 11.9746 2.7265 12.4521 2.24287C12.9295 1.75925 13.4896 1.37328 14.1323 1.08497C14.7751 0.796658 15.4637 0.657151 16.1982 0.666452C16.9236 0.666452 17.6076 0.805958 18.2504 1.08497C18.8931 1.36398 19.4532 1.7453 19.9307 2.22892C20.4081 2.71255 20.7892 3.28452 21.0738 3.94485C21.3584 4.60519 21.4962 5.29807 21.487 6.0235C21.487 6.87914 21.2987 7.68363 20.9223 8.43696C20.5458 9.1903 20.0179 9.82273 19.3384 10.3343C19.9812 10.6784 20.5596 11.0969 21.0738 11.5898C21.588 12.0827 22.0241 12.6547 22.3822 13.3057C22.9698 13.3057 23.5208 13.4173 24.0349 13.6406C24.5491 13.8638 25.0036 14.1753 25.3984 14.5752C25.7933 14.9752 26.0963 15.4309 26.3074 15.9424C26.5186 16.4539 26.6288 17.0166 26.638 17.6304C26.638 18.3001 26.4957 18.9325 26.211 19.5277C25.9264 20.123 25.5178 20.6298 24.9853 21.0484ZM7.38368 18.5233C7.87032 18.5233 8.32482 18.4303 8.74718 18.2443C9.16955 18.0583 9.546 17.8025 9.87655 17.477C10.2071 17.1515 10.4596 16.7748 10.634 16.347C10.8085 15.9192 10.9003 15.4541 10.9095 14.9519C10.9095 14.459 10.8177 13.9986 10.634 13.5708C10.4504 13.143 10.1979 12.7617 9.87655 12.4268C9.55518 12.092 9.18332 11.8363 8.76095 11.6596C8.33859 11.4829 7.8795 11.3899 7.38368 11.3806C6.89704 11.3806 6.44254 11.4736 6.02018 11.6596C5.59781 11.8456 5.22136 12.1013 4.89081 12.4268C4.56027 12.7524 4.30777 13.129 4.13331 13.5569C3.95886 13.9847 3.86704 14.4497 3.85786 14.9519C3.85786 15.4448 3.94967 15.9052 4.13331 16.333C4.31695 16.7609 4.56945 17.1422 4.89081 17.477C5.21218 17.8118 5.58404 18.0676 6.0064 18.2443C6.42877 18.421 6.88786 18.514 7.38368 18.5233ZM12.6724 6.0235C12.6724 6.51642 12.7642 6.9768 12.9479 7.40462C13.1315 7.83244 13.384 8.21375 13.7054 8.54857C14.0267 8.88338 14.3986 9.13915 14.821 9.31585C15.2433 9.49256 15.7024 9.58557 16.1982 9.59487C16.6849 9.59487 17.1394 9.50186 17.5617 9.31585C17.9841 9.12985 18.3606 8.87408 18.6911 8.54857C19.0217 8.22305 19.2742 7.84639 19.4486 7.41857C19.6231 6.99075 19.7149 6.52572 19.7241 6.0235C19.7241 5.53058 19.6322 5.07021 19.4486 4.64239C19.265 4.21457 19.0125 3.83325 18.6911 3.49843C18.3697 3.16362 17.9979 2.90786 17.5755 2.73115C17.1531 2.55444 16.6941 2.46144 16.1982 2.45213C15.7116 2.45213 15.2571 2.54514 14.8347 2.73115C14.4124 2.91716 14.0359 3.17292 13.7054 3.49843C13.3748 3.82395 13.1223 4.20062 12.9479 4.62844C12.7734 5.05626 12.6816 5.52128 12.6724 6.0235ZM22.3684 14.8124C21.9828 14.8124 21.6247 14.8868 21.2942 15.0356C20.9636 15.1844 20.6698 15.3844 20.4127 15.6355C20.1556 15.8866 19.9536 16.1842 19.8067 16.5283C19.6598 16.8725 19.5863 17.2398 19.5863 17.6304C19.5863 18.0211 19.6598 18.3838 19.8067 18.7186C19.9536 19.0534 20.151 19.351 20.3989 19.6114C20.6468 19.8718 20.9407 20.0765 21.2804 20.2253C21.6201 20.3741 21.9828 20.4485 22.3684 20.4485C22.7541 20.4485 23.1122 20.3741 23.4427 20.2253C23.7733 20.0765 24.0671 19.8765 24.3242 19.6254C24.5813 19.3743 24.7833 19.0767 24.9302 18.7325C25.0771 18.3884 25.1505 18.0211 25.1505 17.6304C25.1505 17.2398 25.0771 16.8771 24.9302 16.5423C24.7833 16.2075 24.5858 15.9099 24.3379 15.6494C24.09 15.389 23.7962 15.1844 23.4565 15.0356C23.1168 14.8868 22.7541 14.8124 22.3684 14.8124Z" fill="#0A6141"/>
</svg>
