<svg width="48" height="48" viewBox="0 0 48 48" fill="none" xmlns="http://www.w3.org/2000/svg">
<g id="Group 4">
<path id="Vector" d="M47.5332 19.2996H45.6V19.2H24V28.8H37.5636C35.5848 34.3884 30.2676 38.4 24 38.4C16.0476 38.4 9.6 31.9524 9.6 24C9.6 16.0476 16.0476 9.6 24 9.6C27.6708 9.6 31.0104 10.9848 33.5532 13.2468L40.3416 6.4584C36.0552 2.4636 30.3216 0 24 0C10.746 0 0 10.746 0 24C0 37.254 10.746 48 24 48C37.254 48 48 37.254 48 24C48 22.3908 47.8344 20.82 47.5332 19.2996Z" fill="#FFC107"/>
<path id="Vector_2" d="M2.76562 12.8292L10.6508 18.612C12.7844 13.3296 17.9516 9.6 23.9984 9.6C27.6692 9.6 31.0088 10.9848 33.5516 13.2468L40.34 6.4584C36.0536 2.4636 30.32 0 23.9984 0C14.78 0 6.78562 5.2044 2.76562 12.8292Z" fill="#FF3D00"/>
<path id="Vector_3" d="M24.0027 47.9985C30.2019 47.9985 35.8347 45.6261 40.0935 41.7681L32.6655 35.4825C30.175 37.3765 27.1317 38.401 24.0027 38.3985C17.7603 38.3985 12.4599 34.4181 10.4631 28.8633L2.63672 34.8933C6.60872 42.6657 14.6751 47.9985 24.0027 47.9985Z" fill="#4CAF50"/>
<path id="Vector_4" d="M47.5332 19.3027H45.6V19.2031H24V28.8031H37.5636C36.617 31.4628 34.912 33.7869 32.6592 35.4883L32.6628 35.4859L40.0908 41.7715C39.5652 42.2491 48 36.0031 48 24.0031C48 22.3939 47.8344 20.8231 47.5332 19.3027Z" fill="#1976D2"/>
</g>
</svg>
