<svg width="24" height="25" viewBox="0 0 24 25" fill="none" xmlns="http://www.w3.org/2000/svg">
<g id="key">
<mask id="mask0_1408_1814" style="mask-type:alpha" maskUnits="userSpaceOnUse" x="0" y="0" width="24" height="25">
<rect id="Bounding box" y="0.669922" width="24" height="24" fill="#D9D9D9"/>
</mask>
<g mask="url(#mask0_1408_1814)">
<path id="key_2" d="M7 15.6699C6.16667 15.6699 5.45833 15.3783 4.875 14.7949C4.29167 14.2116 4 13.5033 4 12.6699C4 11.8366 4.29167 11.1283 4.875 10.5449C5.45833 9.96159 6.16667 9.66992 7 9.66992C7.83333 9.66992 8.54167 9.96159 9.125 10.5449C9.70833 11.1283 10 11.8366 10 12.6699C10 13.5033 9.70833 14.2116 9.125 14.7949C8.54167 15.3783 7.83333 15.6699 7 15.6699ZM7 18.6699C8.28333 18.6699 9.44167 18.3033 10.475 17.5699C11.5083 16.8366 12.2333 15.8699 12.65 14.6699H13L14.3 15.9699C14.4 16.0699 14.5083 16.1408 14.625 16.1824C14.7417 16.2241 14.8667 16.2449 15 16.2449C15.1333 16.2449 15.2583 16.2241 15.375 16.1824C15.4917 16.1408 15.6 16.0699 15.7 15.9699L17 14.6699L18.75 16.0449C18.85 16.1283 18.9625 16.1908 19.0875 16.2324C19.2125 16.2741 19.3417 16.2866 19.475 16.2699C19.6083 16.2533 19.7292 16.2158 19.8375 16.1574C19.9458 16.0991 20.0417 16.0199 20.125 15.9199L22.375 13.3449C22.4583 13.2449 22.5208 13.1366 22.5625 13.0199C22.6042 12.9033 22.625 12.7783 22.625 12.6449C22.625 12.5116 22.6 12.3908 22.55 12.2824C22.5 12.1741 22.4333 12.0783 22.35 11.9949L21.325 10.9699C21.225 10.8699 21.1125 10.7949 20.9875 10.7449C20.8625 10.6949 20.7333 10.6699 20.6 10.6699H12.65C12.25 9.53659 11.5458 8.58659 10.5375 7.81992C9.52917 7.05326 8.35 6.66992 7 6.66992C5.33333 6.66992 3.91667 7.25326 2.75 8.41992C1.58333 9.58659 1 11.0033 1 12.6699C1 14.3366 1.58333 15.7533 2.75 16.9199C3.91667 18.0866 5.33333 18.6699 7 18.6699Z" fill="#DF8B3F"/>
</g>
</g>
</svg>
