<svg width="24" height="25" viewBox="0 0 24 25" fill="none" xmlns="http://www.w3.org/2000/svg">
<g id="mail">
<mask id="mask0_1408_1168" style="mask-type:alpha" maskUnits="userSpaceOnUse" x="0" y="0" width="24" height="25">
<rect id="Bounding box" y="0.669922" width="24" height="24" fill="#D9D9D9"/>
</mask>
<g mask="url(#mask0_1408_1168)">
<path id="mail_2" d="M4 20.6699C3.45 20.6699 2.97917 20.4741 2.5875 20.0824C2.19583 19.6908 2 19.2199 2 18.6699V6.66992C2 6.11992 2.19583 5.64909 2.5875 5.25742C2.97917 4.86576 3.45 4.66992 4 4.66992H20C20.55 4.66992 21.0208 4.86576 21.4125 5.25742C21.8042 5.64909 22 6.11992 22 6.66992V18.6699C22 19.2199 21.8042 19.6908 21.4125 20.0824C21.0208 20.4741 20.55 20.6699 20 20.6699H4ZM12 13.4949C12.0833 13.4949 12.1708 13.4824 12.2625 13.4574C12.3542 13.4324 12.4417 13.3949 12.525 13.3449L19.6 8.91992C19.7333 8.83659 19.8333 8.73242 19.9 8.60742C19.9667 8.48242 20 8.34492 20 8.19492C20 7.86159 19.8583 7.61159 19.575 7.44492C19.2917 7.27826 19 7.28659 18.7 7.46992L12 11.6699L5.3 7.46992C5 7.28659 4.70833 7.28242 4.425 7.45742C4.14167 7.63242 4 7.87826 4 8.19492C4 8.36159 4.03333 8.50742 4.1 8.63242C4.16667 8.75742 4.26667 8.85326 4.4 8.91992L11.475 13.3449C11.5583 13.3949 11.6458 13.4324 11.7375 13.4574C11.8292 13.4824 11.9167 13.4949 12 13.4949Z" fill="#DF8B3F"/>
</g>
</g>
</svg>
