<svg width="33" height="32" viewBox="0 0 33 32" fill="none" xmlns="http://www.w3.org/2000/svg">
<g id="ic:round-add">
<path id="Vector" d="M24.5013 17.3327H17.8346V23.9993C17.8346 24.7327 17.2346 25.3327 16.5013 25.3327C15.768 25.3327 15.168 24.7327 15.168 23.9993V17.3327H8.5013C7.76797 17.3327 7.16797 16.7327 7.16797 15.9993C7.16797 15.266 7.76797 14.666 8.5013 14.666H15.168V7.99935C15.168 7.26602 15.768 6.66602 16.5013 6.66602C17.2346 6.66602 17.8346 7.26602 17.8346 7.99935V14.666H24.5013C25.2346 14.666 25.8346 15.266 25.8346 15.9993C25.8346 16.7327 25.2346 17.3327 24.5013 17.3327Z" fill="#0A6141"/>
</g>
</svg>
