<svg width="32" height="32" viewBox="0 0 32 32" fill="none" xmlns="http://www.w3.org/2000/svg">
<g id="ic:round-add">
<path id="Vector" d="M24.0013 17.3327H17.3346V23.9993C17.3346 24.7327 16.7346 25.3327 16.0013 25.3327C15.268 25.3327 14.668 24.7327 14.668 23.9993V17.3327H8.0013C7.26797 17.3327 6.66797 16.7327 6.66797 15.9993C6.66797 15.266 7.26797 14.666 8.0013 14.666H14.668V7.99935C14.668 7.26602 15.268 6.66602 16.0013 6.66602C16.7346 6.66602 17.3346 7.26602 17.3346 7.99935V14.666H24.0013C24.7346 14.666 25.3346 15.266 25.3346 15.9993C25.3346 16.7327 24.7346 17.3327 24.0013 17.3327Z" fill="white"/>
</g>
</svg>
