<svg width="24" height="25" viewBox="0 0 24 25" fill="none" xmlns="http://www.w3.org/2000/svg">
<g id="Component 41">
<mask id="mask0_1408_1818" style="mask-type:alpha" maskUnits="userSpaceOnUse" x="0" y="0" width="24" height="25">
<rect id="Bounding box" y="0.669922" width="24" height="24" fill="#D9D9D9"/>
</mask>
<g mask="url(#mask0_1408_1818)">
<path id="visibility" d="M11.9984 16.6699C13.2484 16.6699 14.3109 16.2324 15.1859 15.3574C16.0609 14.4824 16.4984 13.4199 16.4984 12.1699C16.4984 10.9199 16.0609 9.85742 15.1859 8.98242C14.3109 8.10742 13.2484 7.66992 11.9984 7.66992C10.7484 7.66992 9.68594 8.10742 8.81094 8.98242C7.93594 9.85742 7.49844 10.9199 7.49844 12.1699C7.49844 13.4199 7.93594 14.4824 8.81094 15.3574C9.68594 16.2324 10.7484 16.6699 11.9984 16.6699ZM11.9984 14.8699C11.2484 14.8699 10.6109 14.6074 10.0859 14.0824C9.56094 13.5574 9.29844 12.9199 9.29844 12.1699C9.29844 11.4199 9.56094 10.7824 10.0859 10.2574C10.6109 9.73242 11.2484 9.46992 11.9984 9.46992C12.7484 9.46992 13.3859 9.73242 13.9109 10.2574C14.4359 10.7824 14.6984 11.4199 14.6984 12.1699C14.6984 12.9199 14.4359 13.5574 13.9109 14.0824C13.3859 14.6074 12.7484 14.8699 11.9984 14.8699ZM11.9984 19.6699C9.7651 19.6699 7.7276 19.0699 5.88594 17.8699C4.04427 16.6699 2.5901 15.0866 1.52344 13.1199C1.4401 12.9699 1.3776 12.8158 1.33594 12.6574C1.29427 12.4991 1.27344 12.3366 1.27344 12.1699C1.27344 12.0033 1.29427 11.8408 1.33594 11.6824C1.3776 11.5241 1.4401 11.3699 1.52344 11.2199C2.5901 9.25326 4.04427 7.66992 5.88594 6.46992C7.7276 5.26992 9.7651 4.66992 11.9984 4.66992C14.2318 4.66992 16.2693 5.26992 18.1109 6.46992C19.9526 7.66992 21.4068 9.25326 22.4734 11.2199C22.5568 11.3699 22.6193 11.5241 22.6609 11.6824C22.7026 11.8408 22.7234 12.0033 22.7234 12.1699C22.7234 12.3366 22.7026 12.4991 22.6609 12.6574C22.6193 12.8158 22.5568 12.9699 22.4734 13.1199C21.4068 15.0866 19.9526 16.6699 18.1109 17.8699C16.2693 19.0699 14.2318 19.6699 11.9984 19.6699Z" fill="#DF8B3F"/>
</g>
</g>
</svg>
