<svg width="26" height="24" viewBox="0 0 26 24" fill="none" xmlns="http://www.w3.org/2000/svg">
<path id="Vector" d="M4.16797 20.3368V20.3377C4.16733 21.0923 4.40132 21.7141 4.8727 22.2523C5.32502 22.7686 5.84067 23 6.48047 23C7.54903 23 8.60703 22.91 9.65509 22.7302C10.8154 22.5311 11.9865 22.4316 13.168 22.4316C14.3494 22.4316 15.5206 22.5311 16.6808 22.7302C17.7289 22.91 18.7869 23 19.8555 23H19.8564C20.4943 23.0006 21.0092 22.7698 21.4616 22.2527C21.9335 21.7133 22.1678 21.0911 22.168 20.3376L4.16797 20.3368ZM4.16797 20.3368C4.16797 19.492 4.44457 18.772 5.02079 18.1326C5.75876 17.3138 6.49089 16.5056 7.21717 15.7078C7.87172 15.0003 8.437 14.2292 8.91187 13.3956C9.31341 12.6907 9.79236 12.027 10.3504 11.404L10.3615 11.3916M4.16797 20.3368L10.3615 11.3916M10.3615 11.3916L10.3722 11.3788M10.3615 11.3916L10.3722 11.3788M10.3722 11.3788C10.759 10.9168 11.2038 10.5385 11.7089 10.2393C12.1573 9.97366 12.6373 9.8421 13.168 9.8421C13.7101 9.8421 14.1982 9.96901 14.6498 10.2208C15.1439 10.4963 15.5812 10.8588 15.9638 11.3157L15.9691 11.322M10.3722 11.3788L15.9691 11.322M15.9691 11.322L15.9745 11.3283M15.9691 11.322L15.9745 11.3283M15.9745 11.3283C16.5157 11.9533 16.9945 12.6274 17.4113 13.3515C17.8945 14.191 18.4612 14.9736 19.1105 15.6987L19.1105 15.6987M15.9745 11.3283L19.1105 15.6987M19.1105 15.6987L19.1164 15.7052M19.1105 15.6987L19.1164 15.7052M19.1164 15.7052C19.8442 16.5037 20.5769 17.3127 21.3148 18.1322M19.1164 15.7052L21.3148 18.1322M21.3148 18.1322C21.8904 18.7717 22.1673 19.4921 22.168 20.3375L21.3148 18.1322ZM7.91002 1.61918L7.22784 0.944114L7.91002 1.61918C8.32244 1.20242 8.80439 1 9.41797 1C10.0316 1 10.5135 1.20242 10.9259 1.61918C11.3388 2.03642 11.543 2.52843 11.543 3.15789C11.543 3.78736 11.3388 4.27937 10.9259 4.69661C10.5135 5.11337 10.0316 5.31579 9.41797 5.31579C8.80439 5.31579 8.32244 5.11337 7.91002 4.6966C7.49713 4.27937 7.29297 3.78736 7.29297 3.15789C7.29297 2.52843 7.49713 2.03642 7.91002 1.61918ZM3.79297 10.3684C3.17939 10.3684 2.69744 10.166 2.28502 9.74924C1.87213 9.332 1.66797 8.83999 1.66797 8.21053C1.66797 7.58106 1.87213 7.08905 2.28502 6.67182C2.69744 6.25505 3.17939 6.05263 3.79297 6.05263C4.40655 6.05263 4.88849 6.25505 5.30092 6.67181C5.71381 7.08905 5.91797 7.58106 5.91797 8.21053C5.91797 8.83999 5.71381 9.332 5.30092 9.74924C4.88849 10.166 4.40655 10.3684 3.79297 10.3684ZM16.918 5.31579C16.3044 5.31579 15.8224 5.11337 15.41 4.6966C14.9971 4.27937 14.793 3.78736 14.793 3.15789C14.793 2.52843 14.9971 2.03642 15.41 1.61918C15.8224 1.20242 16.3044 1 16.918 1C17.5316 1 18.0135 1.20242 18.4259 1.61919C18.8388 2.03642 19.043 2.52843 19.043 3.15789C19.043 3.78736 18.8388 4.27937 18.4259 4.69661C18.0135 5.11337 17.5316 5.31579 16.918 5.31579ZM22.543 10.3684C21.9294 10.3684 21.4474 10.166 21.035 9.74923C20.6221 9.332 20.418 8.83999 20.418 8.21053C20.418 7.58106 20.6221 7.08905 21.035 6.67181C21.4474 6.25505 21.9294 6.05263 22.543 6.05263C23.1566 6.05263 23.6385 6.25505 24.0509 6.67182C24.4638 7.08905 24.668 7.58106 24.668 8.21053C24.668 8.83999 24.4638 9.332 24.0509 9.74924C23.6385 10.166 23.1565 10.3684 22.543 10.3684Z" stroke="#0A6141" stroke-width="2"/>
</svg>
